<?xml version="1.0" encoding="UTF-8"?>
<svg id="Ebene_1" data-name="Ebene 1" xmlns="http://www.w3.org/2000/svg" viewBox="0 0 135 80">
  <defs>
    <style>
      .cls-1 {
        fill: #220f60;
        stroke-width: 0px;
      }
    </style>
  </defs>
  <g>
    <path class="cls-1" d="M10.03,63.95v9.16h3.62v2.48h-6.85v-11.64h3.24Z"/>
    <path class="cls-1" d="M22.34,66.54h-4.21v1.9h3.71v2.46h-3.71v2.1h4.21v2.59h-7.45v-11.64h7.45v2.59Z"/>
    <path class="cls-1" d="M31.3,73.69h-4.13l-.63,1.9h-3.4l4.24-11.64h3.73l4.23,11.64h-3.42l-.63-1.9ZM29.24,67.45l-1.24,3.76h2.49l-1.25-3.76Z"/>
    <path class="cls-1" d="M47.08,69.76c0,3.37-2.36,5.83-6.08,5.83h-4.61v-11.64h4.61c3.71,0,6.08,2.39,6.08,5.81ZM40.76,72.73c1.87,0,3.04-1.06,3.04-2.97s-1.17-3-3.04-3h-1.12v5.98h1.12Z"/>
    <path class="cls-1" d="M54.08,63.96c2.39,0,4.46,1.21,5.33,3.45h-2.26c-.61-1.22-1.7-1.8-3.07-1.8-2.28,0-3.93,1.62-3.93,4.21s1.65,4.23,3.93,4.23c1.37,0,2.46-.58,3.07-1.8h2.26c-.88,2.25-2.94,3.43-5.33,3.43-3.24,0-5.86-2.41-5.86-5.86s2.62-5.86,5.86-5.86Z"/>
    <path class="cls-1" d="M66.84,75.7c-3.24,0-5.86-2.43-5.86-5.88s2.62-5.86,5.86-5.86,5.86,2.43,5.86,5.86-2.59,5.88-5.86,5.88ZM66.84,74.07c2.28,0,3.93-1.65,3.93-4.24s-1.65-4.21-3.93-4.21-3.93,1.62-3.93,4.21,1.65,4.24,3.93,4.24Z"/>
    <path class="cls-1" d="M74.55,64.11h2.03l4.03,9,4.01-9h2.01v11.47h-1.88v-7.86l-3.5,7.86h-1.3l-3.52-7.86v7.86h-1.88v-11.47Z"/>
    <path class="cls-1" d="M93.07,70.93h-2.08v4.66h-1.88v-11.47h3.96c2.72,0,4.06,1.55,4.06,3.42,0,1.63-1.07,3.4-4.06,3.4ZM93.07,69.39c1.47,0,2.13-.71,2.13-1.87s-.66-1.88-2.13-1.88h-2.08v3.75h2.08Z"/>
    <path class="cls-1" d="M105.85,73.24h-4.8l-.83,2.34h-1.96l4.11-11.49h2.18l4.11,11.49h-1.98l-.83-2.34ZM103.45,66.37l-1.88,5.33h3.75l-1.87-5.33Z"/>
    <path class="cls-1" d="M114.21,75.7c-2.29,0-4.06-1.25-4.06-3.29h2.01c.08.94.74,1.7,2.05,1.7s2.06-.71,2.06-1.68c0-2.77-6.09-.97-6.09-5.2,0-2.01,1.6-3.27,3.95-3.27,2.2,0,3.75,1.16,3.91,3.12h-2.08c-.07-.78-.74-1.49-1.93-1.52-1.09-.03-1.93.5-1.93,1.6,0,2.59,6.08.97,6.08,5.17,0,1.72-1.4,3.37-3.96,3.37Z"/>
    <path class="cls-1" d="M124.18,75.7c-2.29,0-4.06-1.25-4.06-3.29h2.01c.08.94.74,1.7,2.05,1.7s2.06-.71,2.06-1.68c0-2.77-6.09-.97-6.09-5.2,0-2.01,1.6-3.27,3.95-3.27,2.2,0,3.75,1.16,3.91,3.12h-2.08c-.07-.78-.74-1.49-1.93-1.52-1.09-.03-1.93.5-1.93,1.6,0,2.59,6.08.97,6.08,5.17,0,1.72-1.4,3.37-3.96,3.37Z"/>
  </g>
  <g>
    <path class="cls-1" d="M92.19,43.18c0,3.42-1.39,6.52-3.63,8.76-2.24,2.24-5.34,3.63-8.76,3.63-6.84,0-12.39-5.55-12.39-12.39,0-3.42-1.39-6.52-3.63-8.76-2.24-2.24-5.34-3.63-8.76-3.63-6.84,0-12.39-5.55-12.39-12.39,0-3.42,1.39-6.52,3.63-8.76,2.24-2.24,5.34-3.63,8.76-3.63s6.52,1.39,8.76,3.63c2.24,2.24,3.63,5.34,3.63,8.76,0,6.84,5.55,12.39,12.39,12.39,3.42,0,6.52,1.39,8.76,3.63,2.24,2.24,3.63,5.34,3.63,8.76Z"/>
    <path class="cls-1" d="M92.19,43.18c0,3.42-1.39,6.52-3.63,8.76-.37.37-.76.72-1.17,1.04.97-1.77,1.53-3.8,1.53-5.96,0-3.42-1.39-6.52-3.63-8.76-2.24-2.24-5.34-3.63-8.76-3.63-6.84,0-12.39-5.55-12.39-12.39,0-3.42-1.39-6.52-3.63-8.76-2.24-2.24-5.34-3.63-8.76-3.63-2.86,0-5.49.97-7.58,2.59.56-1.03,1.28-1.97,2.1-2.8,2.24-2.24,5.34-3.63,8.76-3.63s6.52,1.39,8.76,3.63c2.24,2.24,3.63,5.34,3.63,8.76,0,6.84,5.55,12.39,12.39,12.39,3.42,0,6.52,1.39,8.76,3.63,2.24,2.24,3.63,5.34,3.63,8.76Z"/>
    <g>
      <path class="cls-1" d="M74.75,24.26c-2.42-2.42-3.63-5.59-3.63-8.76,0-3.17,1.21-6.34,3.63-8.76,4.84-4.84,12.68-4.84,17.52,0,2.42,2.42,3.63,5.59,3.63,8.76,0,3.17-1.21,6.34-3.63,8.76-2.42,2.42-5.59,3.63-8.76,3.63-3.17,0-6.34-1.21-8.76-3.63Z"/>
      <path class="cls-1" d="M95.9,15.49c0,3.42-1.39,6.52-3.63,8.76-1.06,1.06-2.31,1.93-3.69,2.54,1.95-2.19,3.14-5.08,3.14-8.24,0-3.41-1.39-6.52-3.63-8.76-2.24-2.24-5.34-3.63-8.76-3.63-1.8,0-3.52.39-5.07,1.09.16-.18.32-.36.49-.52,2.24-2.24,5.34-3.63,8.76-3.63s6.52,1.39,8.76,3.63c2.24,2.24,3.63,5.35,3.63,8.76Z"/>
    </g>
    <g>
      <path class="cls-1" d="M42.73,55.02c-2.42-2.42-3.63-5.59-3.63-8.76,0-3.17,1.21-6.34,3.63-8.76,4.84-4.84,12.68-4.84,17.52,0,2.42,2.42,3.63,5.59,3.63,8.76,0,3.17-1.21,6.34-3.63,8.76-2.42,2.42-5.59,3.63-8.76,3.63-3.17,0-6.34-1.21-8.76-3.63Z"/>
      <path class="cls-1" d="M63.88,46.26c0,3.42-1.39,6.52-3.63,8.76-1.06,1.06-2.31,1.93-3.69,2.54,1.95-2.19,3.14-5.08,3.14-8.24,0-3.41-1.39-6.52-3.63-8.76-2.24-2.24-5.34-3.63-8.76-3.63-1.8,0-3.52.39-5.07,1.09.16-.18.32-.36.49-.52,2.24-2.24,5.34-3.63,8.76-3.63s6.52,1.39,8.76,3.63c2.24,2.24,3.63,5.35,3.63,8.76Z"/>
    </g>
  </g>
</svg>