<?xml version="1.0" encoding="UTF-8"?>
<svg id="Ebene_1" data-name="Ebene 1" xmlns="http://www.w3.org/2000/svg" viewBox="0 0 37 43">
  <defs>
    <style>
      .cls-1 {
        fill: #220f60;
        stroke-width: 0px;
      }
    </style>
  </defs>
  <path class="cls-1" d="M33.74,28.75c0,2.08-.84,3.97-2.21,5.33-1.36,1.36-3.25,2.21-5.33,2.21-4.16,0-7.54-3.37-7.54-7.54,0-2.08-.84-3.97-2.21-5.33-1.36-1.36-3.25-2.21-5.33-2.21-4.16,0-7.54-3.37-7.54-7.54,0-2.08.84-3.97,2.21-5.33,1.36-1.36,3.25-2.21,5.33-2.21s3.97.84,5.33,2.21c1.36,1.36,2.21,3.25,2.21,5.33,0,4.16,3.37,7.54,7.54,7.54,2.08,0,3.97.84,5.33,2.21,1.36,1.36,2.21,3.25,2.21,5.33Z"/>
  <path class="cls-1" d="M33.74,28.75c0,2.08-.84,3.97-2.21,5.33-.22.23-.46.44-.71.63.59-1.07.93-2.31.93-3.63,0-2.08-.84-3.97-2.21-5.33-1.36-1.36-3.25-2.21-5.33-2.21-4.16,0-7.54-3.37-7.54-7.54,0-2.08-.84-3.97-2.21-5.33-1.36-1.36-3.25-2.21-5.33-2.21-1.74,0-3.34.59-4.61,1.58.34-.63.78-1.2,1.28-1.7,1.36-1.36,3.25-2.21,5.33-2.21s3.97.84,5.33,2.21c1.36,1.36,2.21,3.25,2.21,5.33,0,4.16,3.37,7.54,7.54,7.54,2.08,0,3.97.84,5.33,2.21,1.36,1.36,2.21,3.25,2.21,5.33Z"/>
  <g>
    <path class="cls-1" d="M23.14,17.24c-1.47-1.47-2.21-3.4-2.21-5.33,0-1.93.74-3.86,2.21-5.33,2.94-2.94,7.71-2.94,10.66,0,1.47,1.47,2.21,3.4,2.21,5.33,0,1.93-.74,3.86-2.21,5.33-1.47,1.47-3.4,2.21-5.33,2.21-1.93,0-3.86-.74-5.33-2.21Z"/>
    <path class="cls-1" d="M36,11.91c0,2.08-.84,3.97-2.21,5.33-.64.64-1.4,1.17-2.24,1.55,1.19-1.33,1.91-3.09,1.91-5.01,0-2.08-.84-3.97-2.21-5.33-1.36-1.36-3.25-2.21-5.33-2.21-1.1,0-2.14.24-3.09.66.09-.11.2-.22.3-.32,1.36-1.36,3.25-2.21,5.33-2.21s3.97.85,5.33,2.21c1.36,1.36,2.21,3.25,2.21,5.33Z"/>
  </g>
  <g>
    <path class="cls-1" d="M3.66,35.96c-1.47-1.47-2.21-3.4-2.21-5.33,0-1.93.74-3.86,2.21-5.33,2.94-2.94,7.71-2.94,10.66,0,1.47,1.47,2.21,3.4,2.21,5.33,0,1.93-.74,3.86-2.21,5.33-1.47,1.47-3.4,2.21-5.33,2.21-1.93,0-3.86-.74-5.33-2.21Z"/>
    <path class="cls-1" d="M16.53,30.63c0,2.08-.84,3.97-2.21,5.33-.64.64-1.4,1.17-2.24,1.55,1.19-1.33,1.91-3.09,1.91-5.01,0-2.08-.84-3.97-2.21-5.33-1.36-1.36-3.25-2.21-5.33-2.21-1.1,0-2.14.24-3.09.66.09-.11.2-.22.3-.32,1.36-1.36,3.25-2.21,5.33-2.21s3.97.85,5.33,2.21c1.36,1.36,2.21,3.25,2.21,5.33Z"/>
  </g>
</svg>