<svg width="232" height="245" viewBox="0 0 232 245" fill="none" xmlns="http://www.w3.org/2000/svg">
<path d="M116 232C98.6912 232 81.6019 228.127 65.9846 220.664C50.3674 213.201 36.6183 202.337 25.7451 188.87C14.8719 175.403 7.15029 159.673 3.14633 142.834C-0.857622 125.994 -1.04243 108.473 2.60545 91.5526L6.00728 92.286C2.46884 108.698 2.6481 125.695 6.53194 142.029C10.4158 158.363 17.9057 173.621 28.4527 186.684C38.9997 199.747 52.3364 210.285 67.4851 217.524C82.6338 224.763 99.2105 228.52 116 228.52V232Z" fill="white"/>
<path d="M119.798 231.514C120.579 230.733 120.579 229.466 119.798 228.685L107.07 215.957C106.289 215.176 105.023 215.176 104.242 215.957C103.461 216.739 103.461 218.005 104.242 218.786L115.556 230.1L104.242 241.413C103.461 242.194 103.461 243.461 104.242 244.242C105.023 245.023 106.289 245.023 107.07 244.242L119.798 231.514ZM116.153 232.1H118.384V228.1H116.153V232.1Z" fill="white"/>
</svg>
